 <svg  version="1.0" xmlns="http://www.w3.org/2000/svg"  width="300.000000pt" height="169.000000pt" viewBox="0 0 300.000000 169.000000"  preserveAspectRatio="xMidYMid meet">  <g transform="translate(0.000000,169.000000) scale(0.100000,-0.100000)" fill="#80c782" stroke="none"> <path d="M1374 1245 c-37 -19 -199 -129 -202 -137 -2 -4 -8 -8 -14 -8 -6 0 -29 -18 -51 -41 -23 -23 -62 -55 -87 -72 -25 -17 -46 -34 -48 -39 -2 -4 -10 -8 -18 -8 -8 0 -14 -3 -14 -8 0 -4 -12 -13 -27 -20 -46 -21 -94 -67 -88 -84 7 -18 102 -37 169 -33 l49 3 -6 -173 c-5 -131 -3 -175 6 -183 17 -13 99 -25 182 -26 63 -1 71 1 80 21 10 24 25 31 25 12 0 -5 5 -7 10 -4 6 4 17 1 25 -5 8 -6 19 -9 25 -5 6 3 51 1 102 -5 81 -10 93 -9 109 6 15 13 22 14 33 5 14 -12 124 -9 157 4 9 3 21 0 27 -7 15 -18 121 -16 133 3 14 22 11 393 -3 407 -14 14 -97 16 -118 2 -11 -7 -16 -37 -20 -126 -3 -81 -9 -119 -17 -122 -10 -3 -13 25 -13 117 0 84 -4 122 -12 127 -18 12 -119 7 -131 -5 -8 -8 -16 -6 -28 5 -15 14 -32 15 -134 5 -156 -14 -168 -20 -177 -95 -4 -32 -6 -85 -5 -117 l3 -59 -52 0 c-60 0 -66 8 -58 78 9 80 24 116 58 140 18 12 41 30 52 40 10 9 52 41 92 71 39 29 72 57 72 62 0 5 3 8 8 7 7 -3 67 41 103 74 15 14 18 15 23 1 3 -8 6 -25 6 -38 0 -31 12 -38 68 -37 51 1 64 14 58 55 -5 33 13 36 39 7 10 -11 22 -20 28 -20 5 0 17 -8 26 -18 41 -47 84 -53 118 -16 22 24 23 28 8 50 -8 13 -15 45 -15 71 0 69 -7 75 -81 73 -87 -3 -84 -4 -122 29 -18 16 -46 33 -61 37 -44 11 -270 10 -292 -1z m361 -72 c63 -49 70 -52 73 -34 3 18 11 21 53 21 l50 0 -2 -60 c-2 -48 1 -63 15 -73 17 -12 16 -14 -9 -31 -30 -20 -26 -22 -174 98 -62 50 -76 58 -91 48 -14 -9 -454 -344 -469 -358 -1 -1 -7 -40 -12 -86 -5 -46 -11 -98 -14 -115 l-6 -33 77 0 77 0 -6 -51 c-4 -29 -9 -54 -11 -57 -3 -2 -56 -1 -118 4 l-113 9 3 130 c1 72 5 153 8 181 l6 51 -115 9 -116 9 144 98 c159 108 155 106 318 88 l58 -6 -126 -94 c-69 -51 -124 -95 -122 -98 3 -2 124 85 270 194 146 108 264 199 262 201 -2 3 -62 -39 -133 -91 l-129 -95 -134 5 -135 6 135 93 136 92 140 0 140 0 70 -55z m-60 -73 c-3 -5 -12 -7 -20 -3 -21 7 -19 13 6 13 11 0 18 -4 14 -10z m-15 -45 c0 -8 -9 -15 -20 -15 -11 0 -20 7 -20 15 0 8 9 15 20 15 11 0 20 -7 20 -15z m47 0 c0 -8 -9 -15 -19 -15 -10 0 -18 7 -18 15 0 8 8 15 18 15 10 0 19 -7 19 -15z m-47 -39 c0 -7 -9 -16 -20 -19 -15 -4 -20 0 -20 14 0 12 7 19 20 19 11 0 20 -6 20 -14z m50 -1 c0 -8 -9 -15 -20 -15 -11 0 -20 7 -20 15 0 8 9 15 20 15 11 0 20 -7 20 -15z m-112 -368 c2 -168 1 -188 -14 -194 -29 -11 -246 13 -255 28 -5 8 -9 83 -9 167 l0 152 27 11 c27 10 180 28 223 25 l25 -1 3 -188z m330 184 c11 -6 13 -48 11 -195 l-3 -186 -48 0 c-36 0 -48 4 -48 15 0 11 -7 14 -22 10 -58 -13 -161 -25 -167 -20 -3 4 -6 88 -6 188 l0 182 59 3 59 3 -7 -135 -8 -136 34 6 c65 11 62 3 54 139 l-7 124 33 4 c18 2 38 4 43 5 6 1 16 -2 23 -7z"/> <path d="M1483 723 c-30 -4 -33 -7 -33 -39 0 -34 1 -34 44 -34 l44 0 4 40 c3 31 0 40 -12 38 -8 0 -30 -3 -47 -5z m34 -39 c0 -6 -9 -9 -19 -6 -10 2 -18 7 -18 11 0 4 8 7 18 7 10 0 19 -5 19 -12z"/> <path d="M1398 713 c-23 -4 -28 -9 -28 -34 0 -26 3 -29 30 -29 28 0 30 3 30 35 0 19 -1 34 -2 34 -2 -1 -15 -4 -30 -6z"/> <path d="M1370 600 c0 -27 3 -30 30 -30 27 0 30 3 30 30 0 27 -3 30 -30 30 -27 0 -30 -3 -30 -30z"/> <path d="M1450 600 c0 -32 4 -35 60 -44 l35 -6 0 40 0 40 -47 0 c-47 0 -48 -1 -48 -30z m63 -6 c-3 -8 -9 -14 -13 -14 -4 0 -13 6 -19 14 -9 11 -7 14 13 14 17 0 23 -5 19 -14z"/> </g> </svg> 