<?xml version="1.0" standalone="no"?>
<!DOCTYPE svg PUBLIC "-//W3C//DTD SVG 20010904//EN"
 "http://www.w3.org/TR/2001/REC-SVG-20010904/DTD/svg10.dtd">
<svg version="1.0" xmlns="http://www.w3.org/2000/svg"
 width="300.000000pt" height="225.000000pt" viewBox="0 0 300.000000 225.000000"
 preserveAspectRatio="xMidYMid meet">
<metadata>
Created by potrace 1.10, written by Peter Selinger 2001-2011
</metadata>
<g transform="translate(0.000000,225.000000) scale(0.100000,-0.100000)"
fill="#000000" stroke="none">
<path d="M1303 1453 c-79 -27 -135 -106 -139 -196 -5 -123 94 -226 206 -215
25 2 36 8 39 23 2 11 8 24 15 28 8 6 8 10 -1 14 -21 8 -14 30 11 37 16 4 32
22 46 52 20 41 21 50 10 87 -23 79 -105 125 -166 94 -51 -26 -84 -79 -84 -133
0 -46 41 -104 73 -104 l22 0 -21 18 c-30 24 -44 55 -44 97 0 29 8 45 34 71 42
42 82 45 124 9 73 -61 35 -188 -58 -197 -40 -3 -58 -38 -21 -38 16 0 21 -6 21
-25 0 -31 -2 -31 -70 4 -139 69 -143 267 -8 337 36 19 115 17 158 -4 19 -9 47
-35 62 -57 23 -33 27 -51 28 -105 0 -45 -5 -73 -16 -90 -28 -42 -87 -99 -96
-94 -4 3 -8 0 -8 -5 0 -24 60 1 97 41 73 78 69 234 -8 305 -54 49 -138 68
-206 46z"/>
<path d="M570 1455 c0 0 -1 -92 -2 -205 -2 -158 0 -205 10 -204 6 1 33 2 60 3
l47 1 0 199 0 199 -58 4 c-31 2 -57 3 -57 3z m80 -205 l0 -170 -25 0 -25 0 0
163 c0 90 3 167 7 170 3 4 15 7 25 7 17 0 18 -12 18 -170z"/>
<path d="M780 1453 l-45 -4 0 -199 0 -200 59 0 58 0 -5 103 c-4 56 -6 104 -7
105 0 2 -5 2 -12 0 -9 -3 -12 -31 -10 -91 1 -86 1 -87 -23 -87 l-25 0 0 170 0
170 29 0 c25 0 37 -11 77 -67 57 -80 113 -143 126 -143 28 0 38 31 38 114 0
86 10 111 35 85 9 -11 11 -53 7 -171 -4 -157 -5 -158 -27 -158 -17 0 -41 23
-91 88 -74 95 -91 111 -114 112 -9 0 -11 -3 -5 -8 6 -4 46 -55 90 -114 l80
-108 50 0 50 0 2 200 2 200 -59 0 -59 0 4 -32 c11 -89 14 -188 6 -188 -6 0
-47 52 -93 115 -46 63 -85 114 -88 113 -3 -1 -25 -3 -50 -5z"/>
<path d="M1606 1369 c3 -75 8 -91 62 -203 l58 -121 50 1 c49 1 49 2 79 55 78
139 105 212 105 282 l0 67 -61 0 -60 0 2 -74 c3 -63 -1 -82 -26 -139 -17 -37
-33 -67 -36 -67 -4 0 -19 28 -34 62 -25 55 -27 69 -22 140 l5 78 -63 0 -63 0
4 -81z m84 -17 c0 -53 6 -79 25 -119 31 -62 47 -77 76 -68 31 10 82 124 81
183 -2 55 8 75 34 70 16 -3 19 -12 18 -68 -2 -54 -8 -77 -39 -135 -68 -128
-73 -135 -109 -135 -30 0 -34 5 -84 103 -47 93 -52 108 -52 170 0 65 1 67 25
67 24 0 25 -2 25 -68z"/>
<path d="M2012 1440 c27 -53 175 -290 181 -290 5 0 35 21 68 46 67 52 68 35
-10 169 l-41 70 -100 5 c-55 3 -99 3 -98 0z m178 -52 c11 -10 27 -33 36 -51 9
-18 20 -34 24 -37 4 -3 12 -21 19 -40 11 -34 5 -48 -22 -48 -5 -1 -15 -9 -24
-19 -8 -10 -12 -12 -8 -5 3 6 0 12 -7 12 -18 0 -122 176 -115 194 9 22 72 17
97 -6z"/>
<path d="M2400 1382 c0 -10 -16 -44 -35 -77 -23 -37 -33 -65 -29 -77 6 -19 6
-19 26 -1 11 10 33 44 49 76 24 46 27 61 19 77 -13 25 -30 26 -30 2z"/>
<path d="M2009 1287 c-34 -42 -69 -111 -69 -135 0 -10 7 -27 15 -38 14 -18 14
-18 15 5 0 32 34 102 65 136 20 21 23 30 15 46 -6 10 -12 19 -13 19 -1 0 -14
-15 -28 -33z"/>
<path d="M2317 1172 c-15 -16 -24 -32 -20 -36 4 -4 1 -5 -7 -2 -8 3 -28 -5
-44 -18 -24 -20 -27 -26 -17 -45 11 -19 20 -21 113 -21 95 0 100 1 86 18 -8 9
-29 43 -47 75 -18 31 -34 57 -35 57 -1 0 -14 -13 -29 -28z m19 -30 c6 -4 14
-17 18 -29 7 -23 4 -25 -39 -25 -52 0 -61 15 -20 34 13 6 22 15 19 19 -6 11 7
11 22 1z"/>
<path d="M2120 1109 c-25 -11 -66 -23 -92 -26 -51 -6 -57 -13 -32 -34 19 -16
117 2 177 32 32 17 36 23 27 35 -16 18 -25 17 -80 -7z"/>
<path d="M1600 980 c0 -38 4 -50 15 -50 9 0 14 8 12 21 -1 12 4 24 11 26 7 3
12 -5 12 -21 0 -14 5 -26 11 -26 6 0 9 14 7 33 -2 27 -7 32 -26 29 -19 -2 -22
2 -17 18 5 14 2 20 -9 20 -12 0 -16 -11 -16 -50z"/>
<path d="M1850 980 c0 -65 17 -65 22 0 2 35 -1 50 -9 50 -9 0 -13 -17 -13 -50z"/>
<path d="M1407 1008 c-2 -7 -2 -28 0 -45 4 -24 11 -33 24 -33 11 0 19 5 19 10
0 6 -4 10 -10 10 -14 0 -12 28 2 32 9 3 8 9 -4 21 -20 20 -24 21 -31 5z"/>
<path d="M1476 994 c-18 -17 -19 -24 -10 -48 7 -17 54 -23 54 -6 0 5 -6 7 -14
4 -8 -3 -17 -1 -21 5 -4 7 4 11 19 11 14 0 26 4 26 9 0 9 -27 41 -35 41 -2 0
-11 -7 -19 -16z"/>
<path d="M2184 1002 c-16 -10 -13 -72 2 -72 20 0 27 19 13 36 -10 13 -10 17 0
24 7 4 9 10 4 13 -5 3 -14 3 -19 -1z"/>
<path d="M1544 986 c-10 -26 1 -51 24 -54 12 -2 22 1 22 7 0 6 -7 11 -15 11
-8 0 -15 7 -15 15 0 8 7 15 15 15 8 0 15 5 15 10 0 16 -40 12 -46 -4z"/>
<path d="M1687 994 c-2 -2 -2 -17 1 -34 5 -36 22 -40 22 -5 0 14 5 25 10 25 6
0 10 -11 10 -25 0 -14 5 -25 10 -25 6 0 10 15 10 34 0 32 -2 35 -30 34 -16 -1
-31 -3 -33 -4z"/>
<path d="M1774 986 c-10 -25 0 -51 20 -54 27 -6 48 25 35 49 -12 22 -47 25
-55 5z"/>
<path d="M1894 986 c-11 -29 0 -51 26 -51 21 0 25 5 25 30 0 24 -5 31 -23 33
-13 2 -24 -3 -28 -12z"/>
<path d="M1971 981 c-13 -25 -2 -41 27 -41 20 0 23 -3 13 -9 -8 -5 -20 -7 -28
-4 -7 3 -13 0 -13 -6 0 -6 13 -11 29 -11 31 0 41 14 41 60 0 25 -3 29 -30 28
-18 -1 -35 -8 -39 -17z"/>
<path d="M2050 965 c0 -22 5 -35 13 -35 8 0 13 13 13 35 0 22 -5 35 -13 35 -8
0 -13 -13 -13 -35z"/>
<path d="M2094 986 c-11 -29 1 -51 29 -54 15 -2 27 1 27 7 0 6 -6 8 -14 5 -8
-3 -17 -1 -21 5 -4 7 4 11 20 11 21 0 26 4 21 16 -3 9 -6 18 -6 20 0 11 -51 2
-56 -10z"/>
<path d="M2258 965 c-3 -24 0 -35 9 -35 8 0 13 13 13 35 0 19 -4 35 -9 35 -5
0 -11 -16 -13 -35z"/>
<path d="M2300 964 c0 -19 5 -34 10 -34 6 0 10 11 10 25 0 14 5 25 10 25 6 0
10 -11 10 -25 0 -15 6 -25 15 -25 11 0 14 9 12 33 -2 29 -6 32 -35 34 -30 1
-32 -1 -32 -33z"/>
<path d="M2392 991 c-22 -13 -11 -56 16 -59 12 -2 22 1 22 7 0 6 -7 11 -15 11
-8 0 -15 5 -15 10 0 6 7 13 15 16 8 4 15 10 15 15 0 11 -21 11 -38 0z"/>
</g>
</svg>
