<?xml version="1.0" standalone="no"?>
<!DOCTYPE svg PUBLIC "-//W3C//DTD SVG 20010904//EN"
 "http://www.w3.org/TR/2001/REC-SVG-20010904/DTD/svg10.dtd">
<svg version="1.0" xmlns="http://www.w3.org/2000/svg"
 width="300.000000pt" height="225.000000pt" viewBox="0 0 300.000000 225.000000"
 preserveAspectRatio="xMidYMid meet">
<metadata>
Created by potrace 1.10, written by Peter Selinger 2001-2011
</metadata>
<g transform="translate(0.000000,225.000000) scale(0.100000,-0.100000)"
fill="#000000" stroke="none">
<path d="M0 1125 l0 -1125 1500 0 1500 0 0 1125 0 1125 -1500 0 -1500 0 0
-1125z m1447 320 c52 -22 82 -52 106 -104 18 -40 24 -108 14 -151 -8 -34 -39
-80 -74 -109 -37 -30 -73 -41 -73 -21 0 5 3 9 8 8 13 -5 83 55 98 83 8 17 14
57 14 101 0 62 -4 79 -25 111 -88 128 -285 87 -321 -68 -20 -83 29 -191 100
-220 70 -28 76 -28 76 -1 0 20 -5 26 -21 26 -38 0 -18 34 24 41 45 7 73 31 87
75 16 46 4 89 -32 119 -42 36 -82 33 -124 -9 -27 -27 -34 -42 -34 -73 0 -38
19 -77 49 -99 9 -7 11 -13 3 -18 -10 -6 -32 13 -69 58 -15 18 -17 96 -3 96 5
0 12 10 16 23 9 36 62 72 106 72 45 0 99 -47 115 -98 16 -54 -24 -147 -64
-147 -17 0 -17 -27 0 -33 9 -4 9 -8 1 -14 -7 -4 -13 -17 -15 -28 -3 -15 -14
-20 -44 -23 -141 -11 -246 151 -187 289 49 112 159 160 269 114z m-763 -197
l0 -200 -60 -1 -59 -1 2 204 c2 113 3 205 3 205 0 0 26 -1 57 -3 l58 -4 -1
-200z m235 96 c46 -63 86 -112 89 -109 7 7 4 146 -4 188 l-6 27 61 0 61 0 -2
-200 -3 -200 -50 0 -51 0 -79 108 c-44 59 -84 110 -90 114 -6 5 -3 8 7 8 9 0
51 -44 96 -103 69 -89 83 -103 108 -102 l29 0 1 115 c1 63 5 142 9 176 l7 61
-31 1 c-35 1 -34 5 -31 -105 1 -65 -2 -86 -14 -99 -27 -27 -27 -27 -162 154
-34 46 -43 53 -69 50 l-30 -3 0 -175 0 -175 25 1 c14 1 28 2 31 3 3 0 4 16 3
34 -7 92 -7 137 0 144 14 15 22 -18 24 -111 l3 -96 -58 0 -58 0 0 200 0 199
45 4 c25 2 47 4 50 5 3 1 43 -51 89 -114z m804 28 c-5 -70 -3 -83 25 -142 l29
-65 33 65 c29 58 32 73 31 142 l-2 78 62 0 61 0 -4 -77 c-3 -71 -8 -88 -62
-193 -31 -63 -61 -119 -66 -124 -5 -5 -30 -9 -56 -10 l-48 -1 -60 125 c-57
117 -61 130 -62 200 -1 41 0 77 1 80 2 3 30 3 63 2 l60 -4 -5 -76z m542 -31
c43 -73 53 -97 44 -107 -17 -20 -105 -84 -116 -84 -5 0 -45 61 -88 136 -43 74
-82 137 -87 140 -23 15 2 19 92 14 l101 -5 54 -94z m165 40 c11 -22 -18 -94
-58 -146 -19 -24 -25 -27 -32 -15 -14 22 -13 25 25 84 19 30 35 64 35 76 0 25
16 26 30 1z m-411 -149 c-22 -31 -42 -74 -46 -95 -5 -37 -7 -38 -20 -22 -7 11
-13 27 -13 37 0 24 35 93 69 135 23 29 27 31 38 17 9 -13 4 -26 -28 -72z m362
-89 c18 -32 39 -66 47 -75 14 -17 9 -18 -86 -18 -94 0 -102 2 -113 22 -11 20
-9 25 16 43 16 11 45 35 64 52 20 18 37 33 38 33 1 0 16 -26 34 -57z m-191
-53 c-46 -35 -170 -60 -195 -40 -24 20 -18 27 33 33 26 3 72 16 102 29 48 21
57 23 69 10 13 -12 11 -17 -9 -32z m-567 -80 c-4 -16 -1 -20 18 -18 20 3 24
-2 27 -29 2 -19 -1 -33 -7 -33 -6 0 -11 12 -11 26 0 16 -5 24 -12 21 -7 -2
-12 -14 -11 -26 2 -13 -3 -21 -12 -21 -11 0 -15 12 -15 50 0 36 4 50 14 50 9
0 12 -7 9 -20z m249 -30 c-5 -65 -22 -65 -22 0 0 33 4 50 13 50 8 0 11 -15 9
-50z m208 40 c0 -5 -7 -10 -15 -10 -8 0 -15 5 -15 10 0 6 7 10 15 10 8 0 15
-4 15 -10z m200 0 c0 -5 -4 -10 -10 -10 -5 0 -10 5 -10 10 0 6 5 10 10 10 6 0
10 -4 10 -10z m-842 -17 c12 -12 13 -18 4 -21 -14 -4 -16 -32 -2 -32 6 0 10
-4 10 -10 0 -5 -8 -10 -19 -10 -13 0 -20 9 -24 33 -4 31 0 57 10 57 2 0 12 -8
21 -17z m76 -9 c23 -22 20 -34 -10 -34 -15 0 -23 -4 -19 -11 4 -6 13 -8 21 -5
8 3 14 1 14 -4 0 -6 -11 -10 -24 -10 -21 0 -36 16 -36 40 0 8 28 40 35 40 2 0
11 -7 19 -16z m685 -4 c-10 -7 -10 -11 0 -24 14 -17 7 -36 -13 -36 -8 0 -13
13 -13 33 0 32 13 50 30 40 5 -3 3 -9 -4 -13z m-609 0 c0 -5 -7 -10 -15 -10
-8 0 -15 -7 -15 -15 0 -8 7 -15 15 -15 8 0 15 -5 15 -11 0 -6 -10 -9 -22 -7
-39 5 -37 68 2 68 11 0 20 -4 20 -10z m164 -28 c1 -19 -4 -32 -11 -32 -7 0
-13 11 -13 25 0 14 -4 25 -10 25 -5 0 -10 -11 -10 -25 0 -14 -4 -25 -10 -25
-5 0 -10 9 -10 19 0 11 -3 26 -6 35 -5 12 1 15 32 13 35 -2 37 -4 38 -35z m75
19 c13 -24 -8 -55 -35 -49 -20 3 -30 29 -20 54 8 20 43 17 55 -5z m116 -16 c0
-25 -4 -30 -25 -30 -16 0 -26 6 -28 18 -6 30 6 49 30 45 18 -2 23 -9 23 -33z
m95 5 c0 -46 -10 -60 -41 -60 -16 0 -29 5 -29 11 0 6 8 8 19 4 11 -3 22 -1 26
5 4 6 -4 10 -19 10 -21 0 -26 5 -26 23 0 30 4 34 40 35 27 1 30 -3 30 -28z
m36 -5 c0 -22 -5 -35 -13 -35 -8 0 -13 13 -13 35 0 22 5 35 13 35 8 0 13 -13
13 -35z m74 31 c0 -2 3 -11 6 -20 5 -12 0 -16 -21 -16 -16 0 -24 -4 -20 -11 4
-6 13 -8 21 -5 8 3 14 1 14 -5 0 -6 -12 -9 -27 -7 -47 5 -45 68 2 68 14 0 25
-2 25 -4z m130 -31 c0 -22 -5 -35 -13 -35 -9 0 -12 11 -9 35 2 19 8 35 13 35
5 0 9 -16 9 -35z m85 -2 c2 -23 -2 -33 -11 -33 -8 0 -14 10 -14 25 0 14 -4 25
-10 25 -5 0 -10 -11 -10 -25 0 -14 -4 -25 -10 -25 -5 0 -10 15 -10 34 0 32 2
34 31 33 28 -2 32 -6 34 -34z m65 27 c0 -5 -7 -10 -15 -10 -8 0 -15 -7 -15
-15 0 -8 7 -15 15 -15 8 0 15 -5 15 -11 0 -6 -10 -9 -22 -7 -42 6 -33 67 10
68 6 0 12 -4 12 -10z"/>
<path d="M600 1428 c0 -2 -2 -83 -3 -180 l-3 -177 30 3 31 3 0 173 0 173 -27
4 c-16 2 -28 2 -28 1z"/>
<path d="M1636 1421 c-2 -3 -2 -39 -2 -80 1 -49 6 -76 14 -79 6 -2 12 -10 12
-17 0 -14 64 -140 82 -162 6 -7 23 -13 38 -13 34 0 36 3 95 115 44 82 48 95
49 164 1 74 1 75 -25 77 -26 3 -27 1 -31 -74 -5 -79 -30 -143 -72 -186 -19
-19 -19 -19 -33 0 -7 10 -19 26 -26 34 -32 40 -41 73 -40 150 l2 79 -30 -1
c-16 -1 -31 -4 -33 -7z"/>
<path d="M2055 1410 c4 -6 12 -7 18 -4 7 4 9 4 5 -1 -6 -7 46 -123 61 -135 3
-3 17 -26 30 -52 13 -27 27 -48 31 -48 8 0 100 69 100 75 0 2 -6 2 -14 -1 -11
-4 -13 0 -9 15 3 13 1 21 -6 21 -7 0 -10 4 -6 9 3 5 -1 16 -9 24 -8 8 -12 17
-9 21 4 3 2 6 -4 6 -6 0 -18 18 -27 40 l-16 40 -76 0 c-48 0 -73 -4 -69 -10z"/>
<path d="M2321 1157 c-6 -8 -8 -17 -4 -21 4 -4 0 -4 -10 0 -13 5 -16 2 -10
-12 4 -12 3 -15 -5 -10 -7 4 -22 0 -34 -8 -19 -14 -20 -16 -5 -16 10 0 15 -4
12 -10 -4 -6 17 -10 54 -10 54 0 61 2 61 19 0 11 -7 26 -15 34 -8 8 -11 18 -7
22 4 5 -1 5 -10 2 -20 -7 -25 9 -5 16 7 4 8 6 1 6 -6 1 -17 -5 -23 -12z"/>
<path d="M1485 980 c-3 -5 1 -10 10 -10 9 0 13 5 10 10 -3 6 -8 10 -10 10 -2
0 -7 -4 -10 -10z"/>
<path d="M1785 971 c-7 -12 12 -24 25 -16 11 7 4 25 -10 25 -5 0 -11 -4 -15
-9z"/>
<path d="M1905 971 c-7 -12 12 -24 25 -16 11 7 4 25 -10 25 -5 0 -11 -4 -15
-9z"/>
<path d="M1990 965 c0 -9 5 -15 11 -13 6 2 11 8 11 13 0 5 -5 11 -11 13 -6 2
-11 -4 -11 -13z"/>
<path d="M2110 980 c0 -5 5 -10 10 -10 6 0 10 5 10 10 0 6 -4 10 -10 10 -5 0
-10 -4 -10 -10z"/>
</g>
</svg>
