<?xml version="1.0" encoding="UTF-8"?>
<svg xmlns="http://www.w3.org/2000/svg" xmlns:xlink="http://www.w3.org/1999/xlink" width="196px" height="100px" viewBox="0 0 196 100" version="1.1">
<g id="surface1">
<path style=" stroke:none;fill-rule:nonzero;fill:rgb(0%,0%,0%);fill-opacity:1;" d="M 86.761719 41.371094 C 78.269531 43.105469 74.285156 49.867188 78.53125 55.382812 C 80.492188 57.875 85.195312 60.054688 88.65625 60.054688 C 90.945312 60.054688 90.03125 59.476562 86.042969 58.496094 C 82.710938 57.652344 79.707031 55.648438 79.707031 54.269531 C 79.707031 53.824219 79.445312 53.292969 79.054688 53.160156 C 77.484375 52.492188 78.792969 46.976562 80.949219 45.195312 C 84.800781 42.039062 93.230469 41.28125 97.410156 43.726562 C 101.59375 46.175781 103.160156 50.890625 101.003906 54.402344 C 100.023438 56.003906 95.84375 58.71875 94.40625 58.71875 C 93.882812 58.71875 93.425781 58.898438 93.425781 59.164062 C 93.425781 59.875 95.386719 59.652344 97.738281 58.675781 C 102.378906 56.71875 104.859375 51.78125 103.160156 47.730469 C 101.265625 43.058594 93.425781 39.992188 86.761719 41.371094 Z M 86.761719 41.371094 "/>
<path style=" stroke:none;fill-rule:nonzero;fill:rgb(0%,0%,0%);fill-opacity:1;" d="M 37.894531 50.578125 L 37.894531 59.609375 L 45.667969 59.609375 L 45.667969 41.59375 L 37.894531 41.59375 Z M 44.035156 50.578125 C 44.101562 55.382812 43.839844 58.320312 43.445312 58.453125 C 43.054688 58.539062 42.074219 58.585938 41.160156 58.539062 L 39.527344 58.496094 L 39.722656 51.601562 C 39.789062 47.820312 39.851562 44.261719 39.851562 43.683594 C 39.851562 42.792969 40.113281 42.660156 41.878906 42.792969 L 43.96875 42.925781 Z M 44.035156 50.578125 "/>
<path style=" stroke:none;fill-rule:nonzero;fill:rgb(0%,0%,0%);fill-opacity:1;" d="M 50.828125 41.679688 L 49 41.859375 L 49 59.609375 L 56.121094 59.609375 L 56.316406 54.761719 L 56.511719 49.867188 L 61.804688 54.625 L 67.097656 59.386719 L 70.363281 59.519531 L 73.695312 59.652344 L 73.957031 50.621094 C 74.089844 45.640625 74.21875 41.546875 74.152344 41.503906 C 74.152344 41.460938 72.390625 41.546875 70.296875 41.679688 L 66.445312 41.949219 L 66.902344 46.796875 C 67.164062 49.421875 67.226562 51.601562 67.03125 51.601562 C 66.835938 51.601562 64.15625 49.289062 61.085938 46.484375 C 55.273438 41.148438 55.46875 41.191406 50.828125 41.679688 Z M 60.300781 47.464844 C 63.046875 49.910156 65.53125 52.089844 65.921875 52.222656 C 66.3125 52.402344 67.097656 52.179688 67.75 51.734375 C 68.730469 51.066406 68.925781 50.265625 68.730469 46.796875 L 68.535156 42.703125 L 72.519531 42.703125 L 72.390625 50.578125 L 72.191406 58.40625 L 70.363281 58.496094 C 67.945312 58.539062 67.683594 58.363281 62.71875 53.824219 C 58.40625 49.910156 57.6875 49.378906 56.382812 49.378906 C 55.207031 49.378906 54.683594 51.066406 54.617188 54.9375 C 54.554688 58.453125 54.554688 58.496094 52.921875 58.453125 C 50.242188 58.363281 50.175781 58.320312 50.699219 57.296875 C 51.222656 56.183594 51.222656 45.730469 50.699219 44.574219 C 50.242188 43.59375 50.960938 42.839844 52.59375 42.617188 C 54.617188 42.304688 55.074219 42.617188 60.300781 47.464844 Z M 60.300781 47.464844 "/>
<path style=" stroke:none;fill-rule:nonzero;fill:rgb(0%,0%,0%);fill-opacity:1;" d="M 105.839844 45.019531 C 105.839844 48.753906 105.90625 48.886719 109.761719 54.226562 L 113.613281 59.609375 L 120.605469 59.609375 L 124.65625 54.046875 C 128.640625 48.621094 128.707031 48.441406 128.707031 44.882812 C 128.707031 41.371094 128.640625 41.28125 127.269531 41.546875 C 126.421875 41.679688 124.722656 41.816406 123.480469 41.816406 L 121.128906 41.816406 L 121.390625 44.796875 C 121.585938 47.507812 121.324219 48.175781 119.363281 50.933594 L 117.144531 54.046875 L 115.050781 51.246094 C 113.09375 48.578125 113.027344 48.265625 113.417969 45.152344 L 113.875 41.816406 L 111.914062 41.816406 C 110.804688 41.816406 108.976562 41.679688 107.867188 41.546875 L 105.839844 41.238281 Z M 111.851562 46.351562 C 112.113281 49.289062 112.570312 50.488281 113.941406 52.136719 C 116.816406 55.515625 117.730469 55.382812 120.800781 51.289062 C 122.433594 49.019531 122.828125 48 122.828125 45.597656 L 122.828125 42.660156 L 124.984375 42.792969 C 127.007812 42.925781 127.074219 42.972656 127.203125 45.152344 C 127.335938 47.597656 126.09375 50.3125 123.480469 53.378906 C 122.566406 54.492188 121.324219 56.09375 120.671875 56.984375 C 119.691406 58.40625 119.363281 58.585938 117.144531 58.539062 C 114.660156 58.496094 114.660156 58.496094 110.9375 53.601562 C 107.667969 49.289062 107.210938 48.441406 107.277344 46.261719 C 107.34375 43.058594 107.605469 42.703125 109.761719 42.703125 C 111.523438 42.703125 111.589844 42.703125 111.851562 46.351562 Z M 111.851562 46.351562 "/>
<path style=" stroke:none;fill-rule:nonzero;fill:rgb(0%,0%,0%);fill-opacity:1;" d="M 137.722656 48.488281 C 140.859375 52.136719 143.734375 55.117188 144.058594 55.160156 C 145.039062 55.160156 152.226562 51.246094 152.226562 50.667969 C 152.226562 50.445312 150.59375 48.308594 148.566406 45.996094 L 144.976562 41.816406 L 132.105469 41.816406 Z M 145.890625 45.195312 C 146.871094 46.308594 147.457031 47.421875 147.261719 47.6875 C 147 48 147.128906 48.042969 147.589844 47.863281 C 147.980469 47.6875 148.503906 47.863281 148.765625 48.355469 C 149.023438 48.800781 149.613281 49.421875 150.070312 49.777344 C 150.59375 50.089844 150.855469 50.578125 150.722656 50.890625 C 150.398438 51.511719 145.171875 54.269531 144.257812 54.269531 C 143.863281 54.269531 143.667969 54.136719 143.929688 54.003906 C 144.125 53.824219 143.863281 53.425781 143.339844 53.070312 C 142.820312 52.714844 142.558594 52.222656 142.753906 52 C 143.015625 51.78125 142.820312 51.601562 142.363281 51.601562 C 141.96875 51.601562 141.773438 51.246094 141.96875 50.757812 C 142.164062 50.179688 141.96875 49.957031 141.445312 50.089844 C 140.988281 50.222656 140.464844 49.957031 140.269531 49.511719 C 140.007812 49.066406 138.832031 47.464844 137.65625 45.996094 L 135.4375 43.238281 L 139.746094 43.195312 L 144.058594 43.148438 Z M 145.890625 45.195312 "/>
<path style=" stroke:none;fill-rule:nonzero;fill:rgb(0%,0%,0%);fill-opacity:1;" d="M 148.960938 50.710938 C 148.960938 50.933594 149.285156 51.15625 149.613281 51.15625 C 150.003906 51.15625 150.265625 50.933594 150.265625 50.710938 C 150.265625 50.445312 150.003906 50.265625 149.613281 50.265625 C 149.285156 50.265625 148.960938 50.445312 148.960938 50.710938 Z M 148.960938 50.710938 "/>
<path style=" stroke:none;fill-rule:nonzero;fill:rgb(0%,0%,0%);fill-opacity:1;" d="M 157.453125 45.285156 C 156.996094 46.175781 155.753906 47.777344 154.773438 48.800781 C 153.597656 49.957031 153.140625 50.757812 153.535156 50.933594 C 154.054688 51.15625 153.992188 51.46875 153.402344 51.914062 C 152.75 52.492188 152.816406 52.578125 153.859375 52.445312 C 155.167969 52.269531 159.152344 48.21875 159.804688 46.398438 C 160 45.863281 159.804688 45.019531 159.28125 44.527344 C 158.367188 43.683594 158.300781 43.683594 157.453125 45.285156 Z M 157.453125 45.285156 "/>
<path style=" stroke:none;fill-rule:nonzero;fill:rgb(0%,0%,0%);fill-opacity:1;" d="M 87.613281 45.285156 C 82.972656 46.886719 81.273438 50.265625 83.5625 53.292969 C 84.28125 54.269531 85.390625 55.160156 85.980469 55.339844 C 87.675781 55.78125 87.9375 55.203125 86.4375 54.492188 C 83.039062 52.847656 83.167969 48.578125 86.699219 46.707031 C 90.746094 44.527344 96.691406 46.796875 96.691406 50.535156 C 96.691406 53.023438 93.101562 55.871094 90.488281 55.425781 C 89.570312 55.25 88.722656 55.425781 88.199219 55.828125 C 87.285156 56.539062 87.875 57.382812 89.246094 57.382812 C 89.769531 57.382812 90.226562 57.5625 90.226562 57.828125 C 90.289062 58.050781 90.421875 58.453125 90.488281 58.71875 C 90.550781 58.941406 90.683594 59.339844 90.746094 59.609375 C 90.878906 60.585938 92.511719 59.921875 93.492188 58.496094 C 94.339844 57.25 94.40625 56.941406 93.621094 56.761719 C 92.316406 56.40625 92.578125 55.695312 94.144531 55.382812 C 97.476562 54.671875 99.175781 49.734375 96.953125 47.375 C 95.910156 46.261719 91.988281 44.484375 90.617188 44.484375 C 90.160156 44.484375 88.851562 44.839844 87.613281 45.285156 Z M 87.613281 45.285156 "/>
<path style=" stroke:none;fill-rule:nonzero;fill:rgb(0%,0%,0%);fill-opacity:1;" d="M 131.777344 49.109375 C 130.863281 49.910156 129.425781 51.511719 128.640625 52.625 C 127.335938 54.449219 127.269531 54.804688 128.054688 56.09375 L 128.96875 57.519531 L 130.011719 55.292969 C 131.058594 53.113281 133.019531 50.890625 134.847656 49.867188 C 135.632812 49.421875 135.699219 49.15625 135.042969 48.441406 C 134 47.285156 133.671875 47.375 131.777344 49.109375 Z M 131.777344 49.109375 "/>
<path style=" stroke:none;fill-rule:nonzero;fill:rgb(0%,0%,0%);fill-opacity:1;" d="M 152.488281 53.871094 C 151.835938 54.402344 150.003906 55.382812 148.503906 56.09375 C 145.953125 57.296875 145.824219 57.472656 146.476562 58.496094 C 147.195312 59.5625 147.457031 59.609375 153.664062 59.609375 L 160.132812 59.609375 L 158.042969 57.027344 C 154.054688 52.222656 154.382812 52.445312 152.488281 53.871094 Z M 153.664062 54.359375 C 152.617188 55.070312 152.683594 55.648438 153.792969 55.339844 C 154.253906 55.203125 154.839844 55.472656 155.101562 55.917969 C 155.296875 56.359375 155.753906 57.117188 156.082031 57.605469 C 156.605469 58.453125 156.34375 58.496094 152.488281 58.585938 C 149.15625 58.675781 148.308594 58.539062 148.308594 58.050781 C 148.308594 56.941406 148.566406 56.71875 149.941406 56.851562 C 150.921875 56.894531 150.984375 56.851562 150.332031 56.539062 C 149.679688 56.273438 149.679688 56.09375 150.265625 55.828125 C 150.722656 55.648438 151.378906 55.78125 151.703125 56.09375 C 152.226562 56.628906 152.292969 56.582031 152.03125 56.050781 C 151.769531 55.425781 153.273438 53.824219 154.121094 53.824219 C 154.316406 53.824219 154.121094 54.046875 153.664062 54.359375 Z M 153.664062 54.359375 "/>
<path style=" stroke:none;fill-rule:nonzero;fill:rgb(0%,0%,0%);fill-opacity:1;" d="M 139.488281 56.71875 C 137.722656 57.296875 134.847656 57.917969 133.148438 58.097656 C 130.339844 58.363281 130.144531 58.453125 130.863281 59.253906 C 131.515625 59.964844 132.105469 60.054688 134.585938 59.832031 C 138.636719 59.476562 143.472656 58.363281 144.386719 57.5625 C 145.039062 57.074219 144.976562 56.941406 144.058594 56.941406 C 143.144531 56.941406 143.078125 56.804688 143.734375 56.273438 C 144.910156 55.292969 143.472656 55.472656 139.488281 56.71875 Z M 139.488281 56.71875 "/>
<path style=" stroke:none;fill-rule:nonzero;fill:rgb(0%,0%,0%);fill-opacity:1;" d="M 105.382812 62.5 C 105.449219 64.101562 105.773438 64.945312 106.363281 64.945312 C 106.753906 64.945312 107.148438 64.457031 107.148438 63.835938 C 107.148438 63.210938 107.472656 62.722656 107.800781 62.722656 C 108.191406 62.722656 108.453125 63.210938 108.453125 63.835938 C 108.453125 64.546875 108.84375 64.945312 109.5 64.945312 C 110.21875 64.945312 110.414062 64.589844 110.28125 63.480469 C 110.152344 62.320312 109.824219 62.054688 108.648438 62.101562 C 107.472656 62.101562 107.148438 61.878906 107.148438 61.078125 C 107.148438 60.5 106.753906 60.054688 106.230469 60.054688 C 105.511719 60.054688 105.316406 60.675781 105.382812 62.5 Z M 105.382812 62.5 "/>
<path style=" stroke:none;fill-rule:nonzero;fill:rgb(0%,0%,0%);fill-opacity:1;" d="M 121.519531 62.5 C 121.519531 64.367188 121.714844 64.945312 122.5 64.945312 C 123.285156 64.945312 123.480469 64.367188 123.480469 62.5 C 123.480469 60.632812 123.285156 60.054688 122.5 60.054688 C 121.714844 60.054688 121.519531 60.632812 121.519531 62.5 Z M 121.519531 62.5 "/>
<path style=" stroke:none;fill-rule:nonzero;fill:rgb(0%,0%,0%);fill-opacity:1;" d="M 92.578125 61.476562 C 92.316406 62.011719 92.382812 62.589844 92.644531 62.722656 C 92.902344 62.855469 93.101562 63.34375 93.101562 63.835938 C 93.101562 64.414062 93.621094 64.769531 94.601562 64.859375 C 95.386719 64.945312 96.039062 64.8125 96.039062 64.546875 C 96.039062 64.28125 95.777344 64.058594 95.386719 64.058594 C 94.472656 64.058594 94.601562 62.855469 95.582031 62.542969 C 96.234375 62.320312 96.234375 62.234375 95.582031 62.011719 C 95.125 61.878906 94.734375 61.476562 94.734375 61.121094 C 94.734375 60.097656 92.96875 60.410156 92.578125 61.476562 Z M 92.578125 61.476562 "/>
<path style=" stroke:none;fill-rule:nonzero;fill:rgb(0%,0%,0%);fill-opacity:1;" d="M 134.914062 60.941406 C 135.109375 61.164062 135.566406 61.386719 135.957031 61.386719 C 136.285156 61.386719 136.546875 61.164062 136.546875 60.941406 C 136.546875 60.675781 136.089844 60.5 135.5 60.5 C 134.980469 60.5 134.71875 60.675781 134.914062 60.941406 Z M 134.914062 60.941406 "/>
<path style=" stroke:none;fill-rule:nonzero;fill:rgb(0%,0%,0%);fill-opacity:1;" d="M 148.308594 60.941406 C 148.308594 61.164062 148.765625 61.386719 149.285156 61.386719 C 149.808594 61.386719 150.265625 61.164062 150.265625 60.941406 C 150.265625 60.675781 149.808594 60.5 149.285156 60.5 C 148.765625 60.5 148.308594 60.675781 148.308594 60.941406 Z M 148.308594 60.941406 "/>
<path style=" stroke:none;fill-rule:nonzero;fill:rgb(0%,0%,0%);fill-opacity:1;" d="M 97.085938 62.101562 C 95.84375 62.898438 95.84375 62.988281 96.691406 64.101562 C 97.085938 64.589844 98.066406 64.945312 98.980469 64.945312 C 101.003906 64.945312 101.136719 64.191406 99.175781 63.921875 L 97.671875 63.746094 L 99.175781 63.65625 C 100.875 63.613281 101.203125 62.101562 99.566406 61.65625 C 98.195312 61.300781 98.261719 61.300781 97.085938 62.101562 Z M 99.308594 62.722656 C 99.308594 62.945312 98.847656 63.167969 98.261719 63.167969 C 97.738281 63.167969 97.476562 62.945312 97.671875 62.722656 C 97.871094 62.457031 98.328125 62.277344 98.71875 62.277344 C 99.046875 62.277344 99.308594 62.457031 99.308594 62.722656 Z M 99.308594 62.722656 "/>
<path style=" stroke:none;fill-rule:nonzero;fill:rgb(0%,0%,0%);fill-opacity:1;" d="M 137.722656 62.5 C 136.808594 63.835938 137.917969 64.945312 140.207031 64.945312 C 142.164062 64.945312 142.230469 64.191406 140.335938 63.921875 L 138.832031 63.746094 L 140.335938 63.65625 C 141.902344 63.613281 142.230469 62.765625 140.988281 61.921875 C 139.746094 61.078125 138.570312 61.300781 137.722656 62.5 Z M 140.464844 62.722656 C 140.464844 62.945312 140.007812 63.167969 139.421875 63.167969 C 138.898438 63.167969 138.636719 62.945312 138.832031 62.722656 C 139.03125 62.457031 139.488281 62.277344 139.878906 62.277344 C 140.207031 62.277344 140.464844 62.457031 140.464844 62.722656 Z M 140.464844 62.722656 "/>
<path style=" stroke:none;fill-rule:nonzero;fill:rgb(0%,0%,0%);fill-opacity:1;" d="M 143.078125 61.832031 C 142.296875 62.1875 142.230469 62.410156 142.949219 63.167969 C 143.40625 63.699219 143.472656 64.058594 143.078125 64.058594 C 142.753906 64.058594 142.425781 64.28125 142.425781 64.546875 C 142.425781 64.8125 142.949219 64.945312 143.601562 64.859375 C 144.386719 64.769531 144.714844 64.234375 144.777344 63.035156 C 144.84375 61.300781 144.648438 61.164062 143.078125 61.832031 Z M 143.078125 61.832031 "/>
<path style=" stroke:none;fill-rule:nonzero;fill:rgb(0%,0%,0%);fill-opacity:1;" d="M 101.527344 62.457031 C 100.875 63.613281 101.59375 64.722656 103.097656 64.859375 C 104.730469 65.035156 105.054688 64.28125 103.554688 63.878906 C 103.03125 63.746094 102.574219 63.433594 102.574219 63.167969 C 102.574219 62.945312 103.03125 62.722656 103.554688 62.722656 C 104.074219 62.722656 104.535156 62.5 104.535156 62.277344 C 104.535156 61.566406 101.921875 61.742188 101.527344 62.457031 Z M 101.527344 62.457031 "/>
<path style=" stroke:none;fill-rule:nonzero;fill:rgb(0%,0%,0%);fill-opacity:1;" d="M 111.066406 63.480469 C 111.066406 64.414062 111.394531 64.945312 111.980469 64.945312 C 112.570312 64.945312 112.765625 64.589844 112.503906 63.835938 C 112.308594 63.035156 112.503906 62.722656 113.289062 62.722656 C 114.070312 62.722656 114.269531 62.988281 113.941406 63.835938 C 113.613281 64.679688 113.8125 64.945312 114.59375 64.945312 C 115.378906 64.945312 115.640625 64.546875 115.640625 63.390625 C 115.640625 61.921875 115.574219 61.878906 113.351562 61.921875 C 111.199219 61.964844 111.066406 62.054688 111.066406 63.480469 Z M 111.066406 63.480469 "/>
<path style=" stroke:none;fill-rule:nonzero;fill:rgb(0%,0%,0%);fill-opacity:1;" d="M 116.554688 62.457031 C 115.769531 63.835938 116.554688 64.722656 118.578125 64.722656 C 120.34375 64.722656 120.539062 64.589844 120.539062 63.390625 C 120.539062 62.277344 120.277344 62.054688 118.710938 61.921875 C 117.601562 61.832031 116.816406 62.011719 116.554688 62.457031 Z M 119.429688 63.210938 C 119.296875 63.480469 118.90625 63.65625 118.578125 63.65625 C 118.253906 63.65625 117.863281 63.480469 117.730469 63.210938 C 117.601562 62.945312 117.992188 62.722656 118.578125 62.722656 C 119.167969 62.722656 119.558594 62.945312 119.429688 63.210938 Z M 119.429688 63.210938 "/>
<path style=" stroke:none;fill-rule:nonzero;fill:rgb(0%,0%,0%);fill-opacity:1;" d="M 124.394531 62.457031 C 123.609375 63.835938 124.394531 64.722656 126.421875 64.722656 C 128.183594 64.722656 128.378906 64.589844 128.378906 63.390625 C 128.378906 62.277344 128.117188 62.054688 126.550781 61.921875 C 125.441406 61.832031 124.65625 62.011719 124.394531 62.457031 Z M 127.269531 63.210938 C 127.136719 63.480469 126.746094 63.65625 126.421875 63.65625 C 126.09375 63.65625 125.703125 63.480469 125.570312 63.210938 C 125.441406 62.945312 125.832031 62.722656 126.421875 62.722656 C 127.007812 62.722656 127.398438 62.945312 127.269531 63.210938 Z M 127.269531 63.210938 "/>
<path style=" stroke:none;fill-rule:nonzero;fill:rgb(0%,0%,0%);fill-opacity:1;" d="M 129.621094 62.5 C 129.035156 63.523438 129.753906 64.414062 131.449219 64.636719 C 132.757812 64.8125 132.757812 64.8125 131.1875 64.902344 C 130.144531 64.902344 129.359375 65.167969 129.359375 65.4375 C 129.359375 65.703125 130.273438 65.835938 131.515625 65.746094 C 133.476562 65.613281 133.605469 65.480469 133.800781 63.699219 C 134 61.878906 133.933594 61.832031 131.972656 61.832031 C 130.796875 61.832031 129.816406 62.101562 129.621094 62.5 Z M 132.496094 63.210938 C 132.367188 63.480469 131.972656 63.65625 131.648438 63.65625 C 131.320312 63.65625 130.929688 63.480469 130.796875 63.210938 C 130.667969 62.945312 131.058594 62.722656 131.648438 62.722656 C 132.234375 62.722656 132.625 62.945312 132.496094 63.210938 Z M 132.496094 63.210938 "/>
<path style=" stroke:none;fill-rule:nonzero;fill:rgb(0%,0%,0%);fill-opacity:1;" d="M 134.914062 63.390625 C 134.914062 64.324219 135.238281 64.945312 135.761719 64.945312 C 136.21875 64.945312 136.546875 64.324219 136.546875 63.390625 C 136.546875 62.457031 136.21875 61.832031 135.761719 61.832031 C 135.238281 61.832031 134.914062 62.457031 134.914062 63.390625 Z M 134.914062 63.390625 "/>
<path style=" stroke:none;fill-rule:nonzero;fill:rgb(0%,0%,0%);fill-opacity:1;" d="M 148.308594 63.390625 C 148.308594 64.367188 148.632812 64.945312 149.15625 64.945312 C 149.742188 64.945312 150.003906 64.414062 150.003906 63.390625 C 149.941406 61.300781 148.308594 61.300781 148.308594 63.390625 Z M 148.308594 63.390625 "/>
<path style=" stroke:none;fill-rule:nonzero;fill:rgb(0%,0%,0%);fill-opacity:1;" d="M 150.921875 63.480469 C 150.921875 64.5 151.246094 64.945312 151.898438 64.945312 C 152.617188 64.945312 152.816406 64.636719 152.488281 63.835938 C 152.160156 62.988281 152.355469 62.722656 153.207031 62.722656 C 154.054688 62.722656 154.253906 62.988281 154.054688 63.835938 C 153.792969 64.589844 153.992188 64.945312 154.578125 64.945312 C 155.167969 64.945312 155.492188 64.414062 155.492188 63.390625 C 155.492188 61.921875 155.429688 61.878906 153.207031 61.921875 C 151.050781 61.964844 150.921875 62.054688 150.921875 63.480469 Z M 150.921875 63.480469 "/>
<path style=" stroke:none;fill-rule:nonzero;fill:rgb(0%,0%,0%);fill-opacity:1;" d="M 156.472656 62.722656 C 156.210938 63.257812 156.40625 63.921875 156.800781 64.28125 C 157.84375 65.125 160.066406 65.125 160.066406 64.28125 C 160.066406 63.921875 159.675781 63.746094 159.152344 63.878906 C 158.628906 64.011719 158.042969 63.878906 157.78125 63.613281 C 157.519531 63.300781 157.910156 62.988281 158.695312 62.855469 C 160.589844 62.542969 160.457031 61.832031 158.5 61.832031 C 157.453125 61.832031 156.734375 62.144531 156.472656 62.722656 Z M 156.472656 62.722656 "/>
</g>
</svg>
